{"title":"The.Hunter.2011.BRRip.XviD.Ac3.Feel-Free","uid":6985750,"size":1502610471,"categoryP":"video","categoryS":"movies","magnet":"?xt=urn:btih:08dc6aaddd2627cecce9f7393c3cb654b5b3b4ec&amp;dn=The.Hunter.2011.BRRip.XviD.Ac3.Feel-Free&amp;tr=udp%3A%2F%2Ftracker.openbittorrent.com%3A80&amp;tr=udp%3A%2F%2Fopen.demonii.com%3A1337&amp;tr=udp%3A%2F%2Ftracker.coppersurfer.tk%3A6969&amp;tr=udp%3A%2F%2Fexodus.desync.com%3A6969","seeders":0,"leechers":0,"uploader":null,"files":7,"time":1327568046,"description":"Genre:Drama\nLanguage:English\nIMDb: &lt;a href=&quot; http://www.imdb.com/title/tt1703148/&quot; rel=&quot;nofollow&quot; target=&quot;_NEW&quot;&gt; http://www.imdb.com/title/tt1703148/&lt;/a&gt;\nSource:720p.BluRay.x264-7SinS Thanks!\n\nFormat : AVI\nFormat/Info : Audio Video Interleave\nFile size : 1.40 GiB\nDuration : 1h 44mn\nOverall bit rate : 1 920 Kbps\n\nVideo\nID : 0\nFormat : MPEG-4 Visual\nFormat profile : Advanced Simple@L5\nFormat settings, BVOP : 1\nFormat settings, QPel : No\nFormat settings, GMC : No warppoints\nFormat settings, Matrix : Default (H.263)\nCodec ID : XVID\nCodec ID/Hint : XviD\nDuration : 1h 44mn\nBit rate : 1 475 Kbps\nWidth : 720 pixels\nHeight : 304 pixels\nDisplay aspect ratio : 2.35:1\nFrame rate : 24.000 fps\nColor space : YUV\nChroma subsampling : 4:2:0\nBit depth : 8 bits\nScan type : Progressive\nCompression mode : Lossy\nBits/(Pixel*Frame) : 0.281\nStream size : 1.07 GiB (77%)\nWriting library : XviD 1.2.1 (UTC 2008-12-04)\n\nAudio\nID : 1\nFormat : AC-3\nFormat/Info : Audio Coding 3\nMode extension : CM (complete main)\nCodec ID : 2000\nDuration : 1h 41mn\nBit rate mode : Constant\nBit rate : 448 Kbps\nChannel(s) : 6 channels\nChannel positions : Front: L C R, Side: L R, LFE\nSampling rate : 48.0 KHz\nBit depth : 16 bits\nCompression mode : Lossy\nStream size : 325 MiB (23%)\nAlignment : Aligned on interleaves\nInterleave, duration : 43 ms (1.03 video frame)\nInterleave, preload duration : 512 ms\n\n\nPlot:\nMartin, a mercenary, is sent from Europe by a mysterious biotech company to the Tasmanian wilderness on a hunt for the last Tasmanian tiger.\n","torrent":{"xt":"urn:btih:08dc6aaddd2627cecce9f7393c3cb654b5b3b4ec","amp;dn":"The.Hunter.2011.BRRip.XviD.Ac3.Feel-Free","amp;tr":["udp%3A%2F%2Ftracker.openbittorrent.com%3A80","udp%3A%2F%2Fopen.demonii.com%3A1337","udp%3A%2F%2Ftracker.coppersurfer.tk%3A6969","udp%3A%2F%2Fexodus.desync.com%3A6969"],"infoHash":"08dc6aaddd2627cecce9f7393c3cb654b5b3b4ec","infoHashBuffer":{"type":"Buffer","data":[8,220,106,173,221,38,39,206,204,233,247,57,60,60,182,84,181,179,180,236]},"announce":[],"urlList":[]}}